<svg xmlns="http://www.w3.org/2000/svg" viewBox="0 0 352 320" fill="none">
<style>
  .mark { fill: #15404E; }
  @media (prefers-color-scheme: dark) { .mark { fill: #ffffff; } }
</style>
<g class="mark">
<path d="M43.0063 248.027C51.4382 243.665 60.2322 239.716 69.3539 236.198C51.4554 210.868 43.5925 182.399 45.7652 151.896C49.0414 107.529 74.1475 68.6629 112.738 47.2123C162.398 19.5887 223.819 27.3826 265.099 66.5075C294.602 94.4761 310.294 134.342 305.759 175.399C303.327 197.487 295.137 217.472 282.36 236.215C290.723 239.543 298.879 243.285 306.811 247.424L308.707 247.665L314.087 239.716C326.606 217.093 335.59 193.176 336.486 166.829C338.055 121.669 321.347 78.0088 289.222 46.5571C263.72 21.5889 231.958 5.44922 196.368 1.19014C156.415 -3.58624 116.652 6.05273 83.9934 28.8828C69.2505 39.177 57.0595 50.3679 46.2825 64.8004C28.6599 88.4237 18.3657 117.065 15.5378 146.533C12.0029 183.434 23.5904 216.386 42.0924 248.165L43.0063 248.027Z"/>
<path d="M138.274 162.121C127.428 165.898 119.876 173.812 112.737 182.365C102.271 194.918 95.3043 209.523 91.1832 225.283C110.909 220.335 131.463 217.058 152.448 215.593H152.552C159.104 215.196 165.743 215.006 172.295 215.006C180.124 215.006 187.952 215.3 195.729 215.886C198.488 212.782 201.781 209.833 205.73 206.316C213.714 208.006 220.507 207.868 228.284 206.954L246.51 204.781L265.512 164.932C270.116 155.241 274.168 145.654 272.858 134.756C272.013 127.721 271.979 120.427 269.944 113.582C266.288 101.373 214.403 76.7674 185.849 76.1639L166.726 75.8018C154.621 76.8191 142.965 78.44 131.205 81.2334C122.807 76.2328 113.53 74.9051 105.012 80.0091C97.4598 84.1647 93.2696 92.7346 93.2352 102.529C77.9921 112.926 72.2846 118.651 60.8696 132.273C57.4037 141.895 56.9899 152.12 57.4382 158.759C71.3535 134.412 83.0444 124.945 99.3738 113.633C105.254 119.807 114.772 120.324 119.152 113.185C111.858 110.443 107.288 105.995 107.133 99.0456C106.978 92.8726 111.961 88.5273 118.548 88.9584C124.583 89.3549 130.653 93.0967 135.291 96.5281C138.05 93.4588 140.982 91.4759 144.81 90.3895C178.693 83.6819 213.49 88.9411 243.079 106.598C243.751 107.512 244.838 109.012 244.234 109.133L241.475 109.788C238.13 110.547 230.526 111.788 230.129 117.082C229.629 123.859 234.888 129.894 240.923 132.756C243.941 134.17 245.562 138.05 244.355 141.395C239.372 155.621 224.991 163.725 210.093 162.294C200.609 161.363 195.177 153.914 193.918 144.43C180.538 148.43 170.45 155.397 159.277 163.104C149.5 170.95 142.396 179.934 135.481 189.918C134.86 190.124 132.032 190.435 132.205 189.711L132.757 187.228L138.326 162.121H138.274ZM262.167 134.963L261.253 150.344C261.184 151.844 259.374 154.965 258.218 155.776C256.856 156.69 252.356 155.655 252.201 154.069C251.459 145.896 255.218 134.756 262.167 134.963ZM244.769 163.828C247.459 164.518 250.287 165.829 252.201 167.381L242.286 191.349C241.424 193.383 239.251 194.987 236.423 195.28L244.751 163.828H244.769ZM237.268 166.605L229.836 195.366L219.732 196.591L218.973 173.381L237.268 166.605Z"/>
<path d="M186.626 118.841L203.99 113.599C194.73 104.978 182.384 98.1495 176.849 105.892C175.142 108.271 175.142 113.686 176.849 116.031C178.625 118.514 183.608 119.755 186.626 118.841Z"/>
<path d="M349.626 287.652L332.831 275.53C319.002 265.546 304.121 256.994 288.481 249.958C285.36 248.562 282.204 247.217 279.014 245.923C251.46 234.819 221.75 228.301 191.229 226.749C186.453 226.49 181.659 226.37 176.848 226.37C171.158 226.37 165.433 226.542 159.709 226.887C139.655 228.284 120.084 231.56 101.461 236.578C70.1299 244.992 41.4716 258.321 17.7967 275.737L1.43283 287.79C-1.77441 290.152 0.915533 295.17 4.65732 293.808L23.7801 286.893C43.8684 279.617 64.0603 273.754 84.2866 269.305C89.9941 268.598 95.7016 267.96 101.444 267.374L109.393 273.995L110.427 274.806L123.032 284.755L140.965 297.636L150.845 304.24L175.659 320L184.177 314.983L193.591 309.016L207.559 299.826L215.611 294.325L232.665 281.772C235.906 279.393 238.889 276.996 241.769 274.564C244.597 272.168 247.304 269.702 250.011 267.15C255.874 267.753 261.72 268.443 267.565 269.185C267.599 269.185 267.617 269.185 267.634 269.202C271.824 270.167 276.031 271.202 280.273 272.288C284.515 273.392 288.774 274.547 293.068 275.789C294.654 276.237 296.24 276.703 297.844 277.185C304.207 279.082 310.639 281.134 317.139 283.324C320.398 284.428 323.674 285.566 326.951 286.738L346.453 293.704C350.212 295.049 352.867 289.997 349.626 287.669V287.652Z"/>
</g>
</svg>
